<svg xmlns="http://www.w3.org/2000/svg" width="192" height="63" fill-rule="evenodd" stroke-miterlimit="1.414" viewBox="0 0 383 126" clip-rule="evenodd" stroke-linejoin="round" aria-labelledby="site-name" role="img">
  <title id="site-name">aGov</title>
  <path fill="#000" d="M276.435 51.268c-3.255-6.458-7.762-11.575-13.51-15.367-2.97-1.98-6.81-3.88-14.85-8.43-10.477-5.93-11.575-12.99-11.575-12.99h-.1s-1.1 7.06-11.57 12.99c-5.95 3.37-9.595 5.28-12.3 6.86-3.37 1.88-6.382 4.22-9.032 7.03-7.947 8.45-11.92 20.29-11.92 35.52 0 9.784 1.834 18.34 5.5 25.676 3.67 7.336 8.92 12.963 15.76 16.88 6.833 3.92 14.725 5.876 23.674 5.876 14.28 0 25.427-4.275 33.43-12.834 8.003-8.56 12.004-20.42 12.004-35.594 0-9.78-1.833-18.31-5.5-25.59zm-24.97 46.56c-2.973 4.696-7.85 7.045-14.63 7.045-6.834 0-11.767-2.36-14.797-7.088-3.03-4.723-4.543-11.698-4.543-20.923 0-9.28 1.5-16.215 4.5-20.8 3.003-4.583 7.894-6.876 14.674-6.876 6.83 0 11.75 2.307 14.75 6.918 3 4.614 4.5 11.535 4.5 20.758 0 9.282-1.49 16.27-4.46 20.965zm-186.108 25.8l-4.918-12.67h-.67c-4.28 5.39-8.69 9.13-13.22 11.21-4.53 2.088-10.44 3.127-17.72 3.127-8.95 0-16-2.554-21.14-7.668-5.13-5.11-7.7-12.393-7.7-21.84C0 85.894 3.46 78.6 10.38 73.902c6.918-4.695 17.352-7.293 31.302-7.792l16.173-.502v-4.084c0-9.45-4.836-14.172-14.506-14.172-7.45 0-16.21 2.25-26.26 6.752l-8.42-17.17c10.72-5.616 22.62-8.423 35.68-8.423 12.5 0 22.09 2.73 28.76 8.17 6.67 5.45 10 13.73 10 24.85v62.11H65.35zm-7.502-43.183l-9.837.336c-7.392.23-12.894 1.56-16.506 4-3.613 2.45-5.42 6.17-5.42 11.17 0 7.18 4.114 10.76 12.34 10.76 5.89 0 10.6-1.69 14.13-5.08 3.528-3.39 5.292-7.89 5.292-13.5v-7.67zm81.092-25.257h48.355v63.188c-7.836 2.56-15.215 4.35-22.133 5.377-6.92 1.027-14 1.54-21.22 1.54-18.4 0-32.45-5.403-42.15-16.212-9.7-10.8-14.55-26.33-14.55-46.56 0-19.67 5.62-35.01 16.88-46.01C115.39 5.5 130.99 0 150.95 0c12.51 0 24.567 2.5 36.184 7.5l-8.586 20.676c-8.894-4.445-18.146-6.67-27.763-6.67-11.17 0-20.12 3.75-26.843 11.255-6.725 7.51-10.087 17.59-10.087 30.27 0 13.23 2.71 23.33 8.128 30.3 5.418 6.98 13.296 10.47 23.633 10.47 5.39 0 10.87-.55 16.426-1.67V76.7H148.08l-9.133-21.505zm170.623 68.44l-35.51-93.2h26.592l18.005 53.103c2.002 6.73 3.252 13.09 3.75 19.09h.504c.28-5.33 1.53-11.69 3.75-19.09l17.93-53.1h26.6l-35.51 93.2h-26.1zm71.062-84.926c-.945.95-2.088 1.424-3.428 1.424-1.34 0-2.48-.475-3.422-1.424-.936-.945-1.403-2.09-1.403-3.435 0-1.332.47-2.47 1.41-3.415.94-.94 2.07-1.41 3.41-1.41 1.34 0 2.48.47 3.43 1.41.94.94 1.41 2.08 1.41 3.415 0 1.34-.48 2.486-1.42 3.435zm-6.368-6.375c-.81.813-1.213 1.795-1.213 2.947 0 1.16.41 2.15 1.21 2.966.81.817 1.79 1.226 2.95 1.226 1.16 0 2.14-.41 2.95-1.226.81-.817 1.22-1.806 1.22-2.966 0-1.15-.4-2.134-1.21-2.947-.81-.817-1.793-1.226-2.944-1.226-1.146 0-2.125.41-2.94 1.23zm2.848.27c.66 0 1.143.064 1.45.192.55.22.824.67.824 1.34 0 .47-.172.82-.52 1.05-.183.12-.438.2-.767.25.41.06.72.24.91.52.19.28.29.55.29.82v.39c0 .12 0 .25.01.39s.02.23.04.274l.03.065h-.88l-.02-.05c-.007-.018-.01-.038-.016-.06l-.02-.17v-.42c0-.61-.167-1.02-.5-1.216-.2-.114-.546-.17-1.043-.17h-.74v2.09h-.935v-5.31h1.86zm1.01.838c-.235-.132-.612-.198-1.133-.198h-.8v1.925h.84c.39 0 .69-.04.89-.12.36-.144.55-.42.55-.83 0-.386-.12-.645-.36-.777z"/>
</svg>
